<svg version="1" xmlns="http://www.w3.org/2000/svg" width="146.3" height="40.375" viewBox="0 0 146.3 40.375"><g fill="#283645"><path d="M71.874 18.661c0-.708.58-1.288 1.256-1.288h7.18c5.087 0 8.436 2.704 8.436 7.147v.064c0 4.861-4.057 7.373-8.854 7.373h-5.474v6.825c0 .708-.58 1.288-1.288 1.288-.676 0-1.256-.58-1.256-1.288V18.661zm8.114 10.979c3.734 0 6.182-1.996 6.182-4.958v-.064c0-3.22-2.415-4.894-6.054-4.894h-5.698v9.917h5.57zM93.603 18.5c0-.708.579-1.288 1.255-1.288.709 0 1.288.58 1.288 1.288v20.283c0 .708-.579 1.288-1.288 1.288-.676 0-1.255-.58-1.255-1.288V18.5zM102.744 18.532c0-.676.579-1.256 1.256-1.256h.354c.58 0 .934.29 1.288.74l13.684 17.45V18.468c0-.676.547-1.256 1.256-1.256.676 0 1.223.58 1.223 1.256v20.348c0 .676-.482 1.191-1.158 1.191h-.129c-.548 0-.934-.322-1.32-.772l-13.974-17.869v17.45c0 .676-.547 1.256-1.255 1.256-.677 0-1.224-.58-1.224-1.256V18.532zM128.174 18.5c0-.708.579-1.288 1.256-1.288.708 0 1.287.58 1.287 1.288v12.331l12.847-13.168c.29-.257.579-.451.998-.451.676 0 1.224.612 1.224 1.256 0 .354-.161.644-.419.901l-7.984 7.92 8.564 10.561c.225.29.354.547.354.934 0 .676-.579 1.288-1.287 1.288-.483 0-.806-.258-1.03-.58l-8.403-10.463-4.862 4.861v4.894c0 .708-.579 1.288-1.287 1.288-.677 0-1.256-.58-1.256-1.288V18.5z"/></g><path fill="#D22856" d="M98.498 9.875a3.624 3.624 0 0 1-3.624-3.624 3.624 3.624 0 0 1-3.624 3.624 3.624 3.624 0 0 1 3.624 3.624 3.624 3.624 0 0 1 3.624-3.624z"/><g fill="#D22856"><path d="M43.094 19.312c.246 0 .488.014.729.033a2.493 2.493 0 0 0-2.136-1.221 1.994 1.994 0 0 1-1.884-1.354c-.727.207-1.425.482-2.089.816.062.017.123.038.189.038a2 2 0 0 1 2 2c0 .096-.015.188-.028.28a9.02 9.02 0 0 1 3.219-.592z"/><path d="M60.498 28.32c0-.054-.009-.105-.016-.158-.006-.049-.009-.098-.02-.146-.002-.009-.001-.017-.003-.025l-5.172-21.34C54.926 4.303 52.694 0 46.688 0a1.5 1.5 0 1 0 0 3c4.856 0 5.575 3.729 5.639 4.143l4.767 19.701h-2.073c-.445-3.557-2.452-6.628-5.304-8.523a2.503 2.503 0 0 0-1.53 2.303c0 .087-.015.171-.026.255a9.035 9.035 0 0 1 3.83 5.965c.082.489.135.988.135 1.5s-.053 1.011-.135 1.5c-.716 4.272-4.421 7.531-8.896 7.531s-8.181-3.259-8.896-7.531c-.082-.489-.135-.988-.135-1.5s.053-1.011.135-1.5a8.955 8.955 0 0 1 .808-2.484 1.994 1.994 0 0 1-1.85-1.985.742.742 0 0 0-.193-.49 11.96 11.96 0 0 0-1.796 4.958H29.46c-.742-5.927-5.802-10.531-11.927-10.531S6.346 20.917 5.604 26.844H3.407L8.146 7.291l.028-.148C8.197 6.973 8.802 3 13.812 3a1.5 1.5 0 1 0 0-3C7.806 0 5.574 4.303 5.213 6.651L.042 27.99c-.002.009-.001.017-.003.025-.011.049-.014.098-.02.146-.007.053-.016.104-.016.158L0 28.344c0 .035.008.068.01.103.004.058.007.115.017.171.009.046.023.091.036.136.014.048.026.096.044.142.018.046.042.09.064.133.021.042.042.085.067.124.026.04.057.077.086.114.03.039.06.078.093.113.032.033.067.062.102.092.039.033.076.067.117.097.039.027.082.05.123.073.042.024.083.051.128.07.049.021.101.037.152.054.036.012.068.028.105.037l.023.003c.107.023.217.039.331.039h4.104c.071.57.194 1.123.343 1.666.017-.062.038-.121.038-.188a2 2 0 0 1 2-2c.208 0 .405.041.594.1a8.939 8.939 0 0 1-.077-1.079c0-.512.053-1.011.135-1.5.716-4.272 4.421-7.531 8.896-7.531s8.181 3.259 8.896 7.531c.082.489.135.988.135 1.5s-.053 1.011-.135 1.5c-.716 4.272-4.421 7.531-8.896 7.531a8.957 8.957 0 0 1-5.444-1.839c-.356.33-.83.536-1.354.536a.75.75 0 0 0-.749.748c0 .265-.054.516-.147.747a11.944 11.944 0 0 0 7.694 2.808c6.125 0 11.186-4.604 11.927-10.531h1.708c.742 5.927 5.802 10.531 11.927 10.531s11.186-4.604 11.927-10.531H59c.114 0 .224-.016.331-.039l.023-.003c.037-.009.07-.025.105-.037.052-.017.104-.032.152-.054.045-.02.086-.046.128-.07.042-.023.084-.046.123-.073.042-.029.079-.063.117-.097.034-.029.07-.059.102-.092.034-.035.063-.074.093-.113.029-.037.06-.074.086-.114.025-.039.045-.082.067-.124.023-.043.046-.087.064-.133.019-.046.031-.094.044-.142.013-.045.027-.09.036-.136.01-.056.013-.113.017-.171.002-.034.01-.067.01-.103.002-.007 0-.015 0-.023z"/></g><path fill="#283645" d="M50.686 16.125a4.499 4.499 0 0 1-4.499-4.499 4.499 4.499 0 0 1-4.499 4.499 4.499 4.499 0 0 1 4.499 4.499 4.498 4.498 0 0 1 4.499-4.499zM37.904 19.626a2.748 2.748 0 0 1-2.749-2.749 2.748 2.748 0 0 1-2.749 2.749 2.748 2.748 0 0 1 2.749 2.749 2.749 2.749 0 0 1 2.749-2.749zM10.734 34.072a2.748 2.748 0 0 1-2.749-2.75c0 1.52-1.23 2.75-2.749 2.75a2.748 2.748 0 0 1 2.749 2.748 2.748 2.748 0 0 1 2.749-2.748z"/></svg>